<?xml version="1.0" encoding="UTF-8" standalone="no"?>
<!DOCTYPE svg PUBLIC "-//W3C//DTD SVG 1.1//EN" "http://www.w3.org/Graphics/SVG/1.1/DTD/svg11.dtd">
<svg width="100%" height="100%" viewBox="0 0 63 56" version="1.1" xmlns="http://www.w3.org/2000/svg" xmlns:xlink="http://www.w3.org/1999/xlink" xml:space="preserve" xmlns:serif="http://www.serif.com/" style="fill-rule:evenodd;clip-rule:evenodd;stroke-linejoin:round;stroke-miterlimit:2;">
    <g transform="matrix(1,0,0,1,-3,-11)">
        <g id="Tucano" transform="matrix(0.245223,-2.1684e-19,2.1684e-19,0.245223,-167.663,-23.5013)">
            <g id="Tuca_silhueta" transform="matrix(0.643894,0,0,0.643894,-722.718,-311.943)">
                <path d="M2401.91,708.589C2402.02,708.447 2402.19,708.366 2402.38,708.367C2402.56,708.369 2402.73,708.454 2402.84,708.598C2406.66,713.643 2410.71,721.893 2413.75,733.53C2413.79,733.679 2413.92,733.784 2414.08,733.787C2420.95,733.887 2423.88,737.951 2424.52,738.996C2424.6,739.136 2424.55,739.309 2424.42,739.397C2423.44,740.058 2419.71,742.564 2418.8,743.177C2418.68,743.259 2418.52,743.265 2418.39,743.194C2417.69,742.793 2415.43,741.597 2415.72,742.998C2418.8,759.807 2420.7,780.941 2421.88,804.71C2421.91,805.392 2422.45,805.944 2423.13,805.998C2436.86,807.101 2565.18,817.412 2594.73,819.787C2598.14,820.061 2600.76,822.925 2600.72,826.344C2600.62,835.949 2600.43,853.943 2600.39,857.653C2600.38,858.046 2600.1,858.38 2599.71,858.446C2588.04,860.432 2427.82,887.705 2427.82,887.705C2421.24,888.522 2417.82,896.268 2417.07,903.631C2417.07,903.631 2413.64,943.602 2412.48,957.224C2412.22,960.204 2412.32,963.204 2412.76,966.162C2413.82,973.333 2415.87,987.134 2416.6,992.054C2416.76,993.129 2417.58,993.986 2418.65,994.187C2427.44,995.843 2466.3,1003.17 2480.87,1005.91C2484.04,1006.51 2486.26,1009.37 2486.06,1012.58C2485.7,1018.29 2485.18,1026.75 2484.97,1030.05C2484.92,1030.85 2484.3,1031.5 2483.5,1031.59C2473.99,1032.61 2418.4,1038.59 2409.11,1039.59C2408.3,1039.68 2407.62,1040.23 2407.37,1040.99C2406.1,1044.81 2402.38,1056.01 2402.38,1056.01C2402.38,1056.01 2398.66,1044.81 2397.39,1040.99C2397.14,1040.23 2396.46,1039.68 2395.66,1039.59C2386.36,1038.59 2330.77,1032.61 2321.26,1031.59C2320.46,1031.5 2319.84,1030.85 2319.79,1030.05C2319.58,1026.75 2319.05,1018.29 2318.7,1012.58C2318.5,1009.37 2320.72,1006.51 2323.89,1005.91C2338.46,1003.17 2377.32,995.843 2386.11,994.187C2387.18,993.986 2388,993.129 2388.16,992.054C2388.89,987.134 2390.94,973.333 2392.01,966.162C2392.45,963.204 2392.54,960.204 2392.28,957.224C2391.12,943.602 2387.7,903.631 2387.7,903.631C2386.94,896.268 2383.52,888.522 2376.94,887.705C2376.94,887.705 2216.72,860.432 2205.05,858.446C2204.66,858.38 2204.38,858.046 2204.37,857.653C2204.33,853.943 2204.14,835.949 2204.04,826.344C2204.01,822.925 2206.62,820.061 2210.03,819.787C2239.59,817.412 2367.9,807.101 2381.63,805.998C2382.31,805.943 2382.85,805.392 2382.88,804.71C2384.06,780.941 2385.96,759.807 2389.03,742.998C2389.33,741.597 2387.07,742.793 2386.37,743.194C2386.24,743.266 2386.08,743.259 2385.96,743.177C2385.05,742.564 2381.32,740.058 2380.34,739.399C2380.2,739.31 2380.16,739.135 2380.23,738.995C2380.88,737.952 2383.8,733.889 2390.68,733.786C2390.83,733.783 2390.97,733.674 2391,733.522C2393.63,722.466 2397.68,713.931 2401.91,708.589Z" style="fill:rgb(59,107,165);"/>
            </g>
            <g id="Tuca_silhueta1" serif:id="Tuca_silhueta" transform="matrix(0.643894,1.73472e-18,-1.73472e-18,0.643894,-722.718,-311.943)">
                <path d="M2401.91,708.589C2402.02,708.447 2402.19,708.366 2402.38,708.367C2402.56,708.369 2402.73,708.454 2402.84,708.598C2406.66,713.643 2410.71,721.893 2413.75,733.53C2413.79,733.679 2413.92,733.784 2414.08,733.787C2420.95,733.887 2423.88,737.951 2424.52,738.996C2424.6,739.136 2424.55,739.309 2424.42,739.397C2423.44,740.058 2419.71,742.564 2418.8,743.177C2418.68,743.259 2418.52,743.265 2418.39,743.194C2417.69,742.793 2415.43,741.597 2415.72,742.998C2418.8,759.807 2420.7,780.941 2421.88,804.71C2421.91,805.392 2422.45,805.944 2423.13,805.998C2436.86,807.101 2565.18,817.412 2594.73,819.787C2598.14,820.061 2600.76,822.925 2600.72,826.344C2600.62,835.949 2600.43,853.943 2600.39,857.653C2600.38,858.046 2600.1,858.38 2599.71,858.446C2588.04,860.432 2427.82,887.705 2427.82,887.705C2421.24,888.522 2417.82,896.268 2417.07,903.631C2417.07,903.631 2413.64,943.602 2412.48,957.224C2412.22,960.204 2412.32,963.204 2412.76,966.162C2413.82,973.333 2415.87,987.134 2416.6,992.054C2416.76,993.129 2417.58,993.986 2418.65,994.187C2427.44,995.843 2466.3,1003.17 2480.87,1005.91C2484.04,1006.51 2486.26,1009.37 2486.06,1012.58C2485.7,1018.29 2485.18,1026.75 2484.97,1030.05C2484.92,1030.85 2484.3,1031.5 2483.5,1031.59C2473.99,1032.61 2418.4,1038.59 2409.11,1039.59C2408.3,1039.68 2407.62,1040.23 2407.37,1040.99C2406.1,1044.81 2402.38,1056.01 2402.38,1056.01C2402.38,1056.01 2398.66,1044.81 2397.39,1040.99C2397.14,1040.23 2396.46,1039.68 2395.66,1039.59C2386.36,1038.59 2330.77,1032.61 2321.26,1031.59C2320.46,1031.5 2319.84,1030.85 2319.79,1030.05C2319.58,1026.75 2319.05,1018.29 2318.7,1012.58C2318.5,1009.37 2320.72,1006.51 2323.89,1005.91C2338.46,1003.17 2377.32,995.843 2386.11,994.187C2387.18,993.986 2388,993.129 2388.16,992.054C2388.89,987.134 2390.94,973.333 2392.01,966.162C2392.45,963.204 2392.54,960.204 2392.28,957.224C2391.12,943.602 2387.7,903.631 2387.7,903.631C2386.94,896.268 2383.52,888.522 2376.94,887.705C2376.94,887.705 2216.72,860.432 2205.05,858.446C2204.66,858.38 2204.38,858.046 2204.37,857.653C2204.33,853.943 2204.14,835.949 2204.04,826.344C2204.01,822.925 2206.62,820.061 2210.03,819.787C2239.59,817.412 2367.9,807.101 2381.63,805.998C2382.31,805.943 2382.85,805.392 2382.88,804.71C2384.06,780.941 2385.96,759.807 2389.03,742.998C2389.33,741.597 2387.07,742.793 2386.37,743.194C2386.24,743.266 2386.08,743.259 2385.96,743.177C2385.05,742.564 2381.32,740.058 2380.34,739.399C2380.2,739.31 2380.16,739.135 2380.23,738.995C2380.88,737.952 2383.8,733.889 2390.68,733.786C2390.83,733.783 2390.97,733.674 2391,733.522C2393.63,722.466 2397.68,713.931 2401.91,708.589Z" style="fill:rgb(59,107,165);"/>
                <clipPath id="_clip1">
                    <path d="M2401.91,708.589C2402.02,708.447 2402.19,708.366 2402.38,708.367C2402.56,708.369 2402.73,708.454 2402.84,708.598C2406.66,713.643 2410.71,721.893 2413.75,733.53C2413.79,733.679 2413.92,733.784 2414.08,733.787C2420.95,733.887 2423.88,737.951 2424.52,738.996C2424.6,739.136 2424.55,739.309 2424.42,739.397C2423.44,740.058 2419.71,742.564 2418.8,743.177C2418.68,743.259 2418.52,743.265 2418.39,743.194C2417.69,742.793 2415.43,741.597 2415.72,742.998C2418.8,759.807 2420.7,780.941 2421.88,804.71C2421.91,805.392 2422.45,805.944 2423.13,805.998C2436.86,807.101 2565.18,817.412 2594.73,819.787C2598.14,820.061 2600.76,822.925 2600.72,826.344C2600.62,835.949 2600.43,853.943 2600.39,857.653C2600.38,858.046 2600.1,858.38 2599.71,858.446C2588.04,860.432 2427.82,887.705 2427.82,887.705C2421.24,888.522 2417.82,896.268 2417.07,903.631C2417.07,903.631 2413.64,943.602 2412.48,957.224C2412.22,960.204 2412.32,963.204 2412.76,966.162C2413.82,973.333 2415.87,987.134 2416.6,992.054C2416.76,993.129 2417.58,993.986 2418.65,994.187C2427.44,995.843 2466.3,1003.17 2480.87,1005.91C2484.04,1006.51 2486.26,1009.37 2486.06,1012.58C2485.7,1018.29 2485.18,1026.75 2484.97,1030.05C2484.92,1030.85 2484.3,1031.5 2483.5,1031.59C2473.99,1032.61 2418.4,1038.59 2409.11,1039.59C2408.3,1039.68 2407.62,1040.23 2407.37,1040.99C2406.1,1044.81 2402.38,1056.01 2402.38,1056.01C2402.38,1056.01 2398.66,1044.81 2397.39,1040.99C2397.14,1040.23 2396.46,1039.68 2395.66,1039.59C2386.36,1038.59 2330.77,1032.61 2321.26,1031.59C2320.46,1031.5 2319.84,1030.85 2319.79,1030.05C2319.58,1026.75 2319.05,1018.29 2318.7,1012.58C2318.5,1009.37 2320.72,1006.51 2323.89,1005.91C2338.46,1003.17 2377.32,995.843 2386.11,994.187C2387.18,993.986 2388,993.129 2388.16,992.054C2388.89,987.134 2390.94,973.333 2392.01,966.162C2392.45,963.204 2392.54,960.204 2392.28,957.224C2391.12,943.602 2387.7,903.631 2387.7,903.631C2386.94,896.268 2383.52,888.522 2376.94,887.705C2376.94,887.705 2216.72,860.432 2205.05,858.446C2204.66,858.38 2204.38,858.046 2204.37,857.653C2204.33,853.943 2204.14,835.949 2204.04,826.344C2204.01,822.925 2206.62,820.061 2210.03,819.787C2239.59,817.412 2367.9,807.101 2381.63,805.998C2382.31,805.943 2382.85,805.392 2382.88,804.71C2384.06,780.941 2385.96,759.807 2389.03,742.998C2389.33,741.597 2387.07,742.793 2386.37,743.194C2386.24,743.266 2386.08,743.259 2385.96,743.177C2385.05,742.564 2381.32,740.058 2380.34,739.399C2380.2,739.31 2380.16,739.135 2380.23,738.995C2380.88,737.952 2383.8,733.889 2390.68,733.786C2390.83,733.783 2390.97,733.674 2391,733.522C2393.63,722.466 2397.68,713.931 2401.91,708.589Z"/>
                </clipPath>
                <g clip-path="url(#_clip1)">
                    <g transform="matrix(0.0225448,-3.02098,3.02098,0.0225448,2164.97,1711.23)">
                        <path d="M267.35,74.54L275,11.434L300.648,71.232L300.648,82.929L275,142.728L267.35,78.718L237.917,82.483L207.333,105.634L207.333,47.623L237.917,70.774L267.35,74.54Z" style="fill:rgb(245,179,20);"/>
                    </g>
                    <g transform="matrix(0.0225448,-3.02098,3.02098,0.0225448,2164.97,1711.23)">
                        <path d="M266.655,73.647L274.208,11.338L275.733,11.12L301.445,71.069L301.445,83.093L275.733,143.042L274.208,142.822L266.654,79.611L238.229,83.248L207.814,106.27L206.535,105.634L206.535,47.623L207.814,46.987L238.229,70.01L266.655,73.647ZM267.35,74.54L275,11.434L300.648,71.232L300.648,82.929L275,142.728L267.35,78.718L237.917,82.483L207.333,105.634L207.333,47.623L237.917,70.774L267.35,74.54Z" style="fill:white;"/>
                    </g>
                </g>
            </g>
            <g id="Tuca_silhueta2" serif:id="Tuca_silhueta" transform="matrix(0.643894,1.73472e-18,-1.73472e-18,0.643894,-722.718,-311.943)">
                <path d="M2401.91,708.589C2402.02,708.447 2402.19,708.366 2402.38,708.367C2402.56,708.369 2402.73,708.454 2402.84,708.598C2406.66,713.643 2410.71,721.893 2413.75,733.53C2413.79,733.679 2413.92,733.784 2414.08,733.787C2420.95,733.887 2423.88,737.951 2424.52,738.996C2424.6,739.136 2424.55,739.309 2424.42,739.397C2423.44,740.058 2419.71,742.564 2418.8,743.177C2418.68,743.259 2418.52,743.265 2418.39,743.194C2417.69,742.793 2415.43,741.597 2415.72,742.998C2418.8,759.807 2420.7,780.941 2421.88,804.71C2421.91,805.392 2422.33,868.067 2417.07,903.631C2417.07,903.631 2413.64,943.602 2412.48,957.224C2412.22,960.204 2412.32,963.204 2412.76,966.162C2413.52,971.288 2407.48,1040.78 2407.48,1040.78L2402.38,1056.01L2397.32,1040.92C2397.32,1040.92 2391.26,971.171 2392.01,966.162C2392.45,963.204 2392.54,960.204 2392.28,957.224C2391.12,943.602 2387.7,903.631 2387.7,903.631C2383.63,856.131 2382.85,805.392 2382.88,804.71C2384.06,780.941 2385.96,759.807 2389.03,742.998C2389.33,741.597 2387.07,742.793 2386.37,743.194C2386.24,743.266 2386.08,743.259 2385.96,743.177C2385.05,742.564 2381.32,740.058 2380.34,739.399C2380.2,739.31 2380.16,739.135 2380.23,738.995C2380.88,737.952 2383.8,733.889 2390.68,733.786C2390.83,733.783 2390.97,733.674 2391,733.522C2393.63,722.466 2397.68,713.931 2401.91,708.589Z" style="fill:rgb(59,107,165);"/>
            </g>
            <g id="Canopy" transform="matrix(2.56742,0,0,2.56742,-4105.29,-2102.96)">
                <path d="M1920,920.476C1922.25,920.476 1922.96,918.973 1923.04,918.788C1923.05,918.776 1923.05,918.763 1923.05,918.75C1923.09,918.344 1923.72,911.82 1923.78,905.632C1923.81,903.319 1923.61,897.395 1923.54,895.437C1923.53,895.081 1923.23,894.799 1922.88,894.801C1921.86,894.807 1920,894.817 1920,894.817L1920,894.817C1920,894.817 1918.14,894.807 1917.12,894.801C1916.77,894.799 1916.47,895.081 1916.46,895.437C1916.39,897.395 1916.19,903.319 1916.22,905.632C1916.28,911.82 1916.91,918.344 1916.95,918.75C1916.95,918.763 1916.95,918.776 1916.96,918.788C1917.04,918.973 1917.76,920.476 1920,920.476Z" style="fill:rgb(99,99,99);"/>
            </g>
        </g>
    </g>
</svg>
